<svg width="24" height="24" viewBox="0 0 24 24" fill="none" xmlns="http://www.w3.org/2000/svg">
<g clip-path="url(#clip0_287_501)">
<path d="M16.98 2.01277e-05C17.9168 -0.0323268 18.8505 0.126559 19.7239 0.466981C20.5973 0.807402 21.3921 1.32222 22.06 1.98002C22.7038 2.64783 23.2071 3.43791 23.5403 4.30358C23.8736 5.16924 24.0299 6.09292 24 7.02002V16.98C24 19.06 23.32 20.85 22.02 22.11C20.6409 23.3832 18.8159 24.0622 16.94 24H7.06C5.19975 24.0576 3.392 23.3784 2.03 22.11C1.35485 21.4338 0.826177 20.6258 0.476928 19.7363C0.127678 18.8468 -0.0346699 17.895 -3.45381e-06 16.94V7.02002C-3.45381e-06 2.80002 2.8 2.01277e-05 7.02 2.01277e-05H16.98ZM17.03 2.23002H7.06C5.61 2.23002 4.36 2.66002 3.53 3.48002C3.08649 3.95241 2.74278 4.50937 2.51942 5.1176C2.29605 5.72584 2.19762 6.37287 2.23 7.02002V16.94C2.23 18.44 2.66 19.64 3.53 20.52C4.50031 21.3782 5.76583 21.8264 7.06 21.77H16.94C18.2342 21.8264 19.4997 21.3782 20.47 20.52C20.9358 20.0591 21.3008 19.5065 21.5418 18.8971C21.7828 18.2877 21.8946 17.6349 21.87 16.98V7.02002C21.9023 5.73269 21.4366 4.48254 20.57 3.53002C20.0976 3.08651 19.5406 2.74281 18.9324 2.51944C18.3242 2.29608 17.6771 2.19764 17.03 2.23002ZM12 5.76002C15.39 5.76002 18.2 8.56002 18.2 11.96C18.2 13.6044 17.5468 15.1814 16.3841 16.3441C15.2213 17.5068 13.6443 18.16 12 18.16C10.3557 18.16 8.77866 17.5068 7.61593 16.3441C6.45321 15.1814 5.8 13.6044 5.8 11.96C5.8 10.3157 6.45321 8.73868 7.61593 7.57596C8.77866 6.41323 10.3557 5.76002 12 5.76002ZM12 7.98002C10.9487 7.98528 9.94197 8.40523 9.19859 9.14861C8.45521 9.892 8.03525 10.8987 8.03 11.95C8.03525 13.0013 8.45521 14.008 9.19859 14.7514C9.94197 15.4948 10.9487 15.9148 12 15.92C13.0513 15.9148 14.058 15.4948 14.8014 14.7514C15.5448 14.008 15.9647 13.0013 15.97 11.95C15.9647 10.8987 15.5448 9.892 14.8014 9.14861C14.058 8.40523 13.0513 7.98528 12 7.98002ZM18.44 4.21002C18.8113 4.21002 19.1674 4.35752 19.4299 4.62007C19.6925 4.88262 19.84 5.23872 19.84 5.61002C19.84 5.98132 19.6925 6.33742 19.4299 6.59997C19.1674 6.86252 18.8113 7.01002 18.44 7.01002C18.0687 7.01002 17.7126 6.86252 17.45 6.59997C17.1875 6.33742 17.04 5.98132 17.04 5.61002C17.04 5.23872 17.1875 4.88262 17.45 4.62007C17.7126 4.35752 18.0687 4.21002 18.44 4.21002Z" fill="#30BAEB"/>
</g>
<defs>
<clipPath id="clip0_287_501">
<rect width="24" height="24" fill="white"/>
</clipPath>
</defs>
</svg>
