<svg width="140" height="35" viewBox="0 0 140 35" fill="none" xmlns="http://www.w3.org/2000/svg">
<g id="g12">
<path id="path16" d="M18.3119 35C7.3344 34.9956 0 27.2168 0 17.7861C0 8.354 7.3515 0.485569 18.2948 0.509632H121.705C132.649 0.485569 140 8.354 140 17.7861C140 27.2168 132.666 34.9956 121.688 35H18.3119ZM18.3444 4.75229C9.6542 4.76942 4.32104 10.5769 4.32104 17.7632C4.32104 24.9469 9.62172 30.8029 18.3444 30.7715H121.656C130.378 30.8015 135.68 24.9469 135.68 17.7632C135.68 10.5797 130.347 4.77088 121.657 4.7552L18.3444 4.75229ZM127.213 10.8179C128.003 10.8179 128.395 11.0855 128.395 11.6153C128.395 11.9799 128.168 12.2547 127.791 12.3487L128.41 13.5861H127.661L127.131 12.4512H126.802V13.5861H126.127V10.8179H127.213ZM127.151 9.73537C125.771 9.73537 124.652 10.8546 124.652 12.2332C124.652 13.6135 125.771 14.7327 127.151 14.7327C128.531 14.7327 129.649 13.6135 129.649 12.2332C129.649 10.8546 128.531 9.73537 127.151 9.73537ZM129.172 12.236C129.172 13.3513 128.266 14.2569 127.151 14.2569C126.036 14.2569 125.13 13.3513 125.13 12.236C125.13 11.1198 126.036 10.2152 127.151 10.2152C128.266 10.2152 129.172 11.1182 129.172 12.236ZM126.802 12.0469H127.131C127.516 12.0469 127.701 11.9287 127.701 11.6538C127.701 11.3662 127.503 11.2407 127.097 11.2407H126.802V12.0469ZM70.3274 18.8113C70.3205 17.866 70.3405 17.2334 70.6508 16.6938C71.0325 16.0288 71.7332 15.7124 72.3683 15.7084H72.3669C73.002 15.7124 73.7027 16.0288 74.0844 16.6938C74.3951 17.2348 74.4078 17.8674 74.4005 18.8128L70.3274 18.8113ZM74.3834 22.0671C74.3834 22.0671 74.3878 22.1155 74.3878 22.7222C74.3878 24.6961 73.0877 25.1347 72.3669 25.1347C71.645 25.1347 70.3234 24.6961 70.3234 22.7222C70.3234 22.1298 70.3274 20.492 70.3274 20.492C70.3274 20.492 79.5247 20.4964 79.5247 20.4906C79.5247 17.1422 76.292 14.3681 72.3198 14.3681C68.3495 14.3681 65.131 17.0825 65.131 20.4307C65.131 23.7788 68.3495 26.4919 72.3198 26.4919C75.6138 26.4919 78.3982 24.6122 79.2469 22.0627L74.3834 22.0671ZM89.7458 14.549C91.5717 14.4962 95.2758 15.6927 95.2489 19.9663C95.2459 20.7243 95.2474 25.8413 95.2474 25.8413H90.3966C90.3966 25.8413 90.3966 19.4253 90.3966 18.7501C90.3966 17.8102 89.4968 16.7634 88.1665 16.7634C86.8365 16.7634 85.8481 17.8102 85.8481 18.7501C85.8481 19.2117 85.8535 25.8413 85.8535 25.8413H81.006L81.01 15.0445L85.855 15.0419C85.855 15.0419 85.8495 15.9092 85.855 16.1768C86.788 15.2866 88.1336 14.5946 89.7458 14.549ZM50.0675 14.549C51.8933 14.4962 55.5975 15.6927 55.5705 19.9663C55.5676 20.7243 55.5691 25.8413 55.5691 25.8413H50.7183C50.7183 25.8413 50.7183 19.4253 50.7183 18.7501C50.7183 17.8102 49.8185 16.7634 48.4867 16.7634C47.1581 16.7634 46.1697 17.8102 46.1697 18.7501C46.1697 19.2117 46.1737 25.8413 46.1737 25.8413H41.3273L41.3262 15.0445L46.1767 15.0419C46.1767 15.0419 46.1712 15.9092 46.1767 16.1768C47.1096 15.2866 48.4539 14.5946 50.0675 14.549ZM105.772 9.6085H110.591V25.8452H105.765C105.765 25.8452 105.763 25.3213 105.763 25.2203C103.895 26.3935 101.786 26.3921 100.145 25.6261C99.7037 25.4209 96.8053 24.031 96.8053 20.2726C96.8053 17.4229 99.4941 14.3113 103.013 14.6186C104.171 14.7215 104.996 15.1429 105.776 15.583C105.772 13.0837 105.772 9.6085 105.772 9.6085ZM105.808 20.3922C105.808 20.3922 105.808 19.0381 105.808 18.4624C105.808 16.7919 104.655 16.3661 103.896 16.3661C103.12 16.3661 101.982 16.7919 101.982 18.4624C101.982 19.0166 101.984 20.3867 101.984 20.3867C101.984 20.3867 101.982 21.7325 101.982 22.3062C101.982 23.9742 103.12 24.4113 103.895 24.4113C104.655 24.4113 105.81 23.9742 105.81 22.3062C105.81 21.6142 105.808 20.3922 105.808 20.3922ZM121.278 20.3608C121.278 20.3608 121.277 21.9931 121.277 22.6468C121.277 24.3687 120.26 25.0792 119.281 25.0792C118.301 25.0792 117.281 24.3687 117.281 22.6468C117.281 21.9931 117.283 20.3197 117.283 20.3197C117.283 20.3197 117.286 18.7231 117.286 18.068C117.286 16.3533 118.309 15.65 119.281 15.65C120.256 15.65 121.277 16.3533 121.277 18.068C121.277 18.7231 121.274 19.9324 121.279 20.3667L121.278 20.3608ZM119.317 14.3113C115.375 14.3113 112.18 17.0256 112.18 20.3739C112.18 23.722 115.376 26.4363 119.317 26.4363C123.258 26.4363 126.452 23.722 126.452 20.3739C126.452 17.0256 123.258 14.3113 119.317 14.3113ZM33.744 9.60562H38.6374V12.924H33.744V9.60562ZM33.7553 25.8452V15.0473L38.6374 15.0489V25.8452H33.7553ZM58.2495 25.8452L58.252 15.0688H55.5975V13.4665L58.2535 13.4651L58.2506 11.2776H63.1356V13.4625H65.7803V15.0688H63.1356L63.14 25.8452H58.2495ZM13.8869 25.8452L13.8885 9.6085H18.9471L25.9452 20.9306L25.9408 9.6085H30.9611V25.8452H25.9481L18.9128 14.5219V25.8452H13.8869Z" fill="white"/>
</g>
</svg>
