<svg width="156" height="43" viewBox="0 0 156 43" fill="none" xmlns="http://www.w3.org/2000/svg">
<g id="5180766 1">
<g id="Group">
<path id="Vector" d="M75.777 6.19821C71.253 8.94866 73.632 16.0766 78.858 15.3793C81.666 14.9919 83.46 12.9775 83.46 10.1883C83.46 6.5856 78.975 4.26127 75.777 6.19821Z" fill="white"/>
<path id="Vector_2" d="M12.948 11.1568C10.374 12.0865 8.346 13.6748 6.747 16.0379C5.148 18.3622 4.68 20.0279 4.68 23.437C4.68 30.0613 9.594 35.1361 16.458 35.5622C20.358 35.7946 22.815 34.9424 25.584 32.4243C28.626 29.6739 29.835 27.0009 29.796 23.0496C29.796 20.4928 29.601 19.5631 28.743 17.7811C27.495 15.1856 24.843 12.6676 22.308 11.5054C19.734 10.382 15.6 10.227 12.948 11.1568ZM20.553 16.309C23.751 17.8586 25.428 21.3063 24.609 24.6766C23.322 29.6739 18.369 31.9982 13.728 29.7901C9.438 27.6982 8.307 21.5775 11.622 18.0523C13.962 15.573 17.55 14.8757 20.553 16.309Z" fill="white"/>
<path id="Vector_3" d="M41.067 11.1955C37.596 12.3964 35.178 14.6432 33.462 18.4396C32.682 20.1442 32.565 21.0739 32.448 27.9694L32.292 35.6396H34.827H37.362L37.518 28.3568C37.674 20.4928 37.791 19.9505 40.131 17.5874C41.379 16.309 43.563 15.4955 45.669 15.4955C46.761 15.4955 47.268 15.1856 48.672 13.5973C49.569 12.5126 50.31 11.5829 50.31 11.5054C50.31 11.1568 46.761 10.4595 44.967 10.4595C43.953 10.4982 42.198 10.8081 41.067 11.1955Z" fill="white"/>
<path id="Vector_4" d="M56.238 11.1955C53.664 12.0865 51.675 13.636 50.037 16.0378C48.438 18.3622 47.97 20.0279 47.97 23.4369C47.97 28.5505 51.168 33.0442 56.121 34.9036C59.202 36.027 63.336 35.8333 66.222 34.4L68.25 33.3541V34.4775V35.6396H70.824H73.398L73.242 27.7757C73.125 20.1054 73.086 19.9117 72.033 17.7424C69.147 11.8928 62.361 9.10361 56.238 11.1955ZM63.843 16.309C67.08 17.8586 68.874 21.6162 67.899 24.8703C66.456 29.7514 61.542 31.9595 57.018 29.7901C52.884 27.7757 51.675 21.7712 54.717 18.3234C57.135 15.573 60.684 14.7982 63.843 16.309Z" fill="white"/>
<path id="Vector_5" d="M91.494 11.3892C88.647 12.5901 85.761 15.3018 84.552 17.9748C83.733 19.7955 83.655 20.609 83.538 27.8144L83.421 35.6396H85.956H88.53V28.6667C88.53 23.2433 88.647 21.3451 89.115 20.2216C90.87 16.1153 95.511 14.3721 99.45 16.3478L101.205 17.2387L101.322 26.4198L101.4 35.6396H103.935H106.47V26.3811V17.1225L108.147 16.309C111.033 14.9144 114.153 15.3793 116.571 17.5874C118.755 19.6018 118.95 20.4928 118.95 28.473V35.6396H121.602H124.215L124.137 28.1631C124.059 19.2532 123.552 17.3162 120.549 14.3333C117.741 11.5829 115.518 10.6532 111.54 10.6532C108.693 10.6532 107.913 10.8081 106.002 11.7378L103.779 12.8225L101.751 11.7766C98.787 10.227 94.653 10.0721 91.494 11.3892Z" fill="white"/>
<path id="Vector_6" d="M134.784 11.3892C131.469 12.7838 129.597 14.527 127.998 17.8198C126.516 20.8415 126.477 25.1802 127.959 28.318C130.104 32.8117 133.887 35.3297 138.84 35.5622C143.988 35.7946 148.278 33.4315 150.735 29.0153C151.632 27.3496 151.905 26.3424 152.022 23.8243C152.217 19.7568 151.242 17.0451 148.59 14.3333C146.133 11.8153 143.754 10.8081 140.01 10.5757C137.553 10.4595 136.734 10.5757 134.784 11.3892ZM142.272 16.0766C145.47 17.4324 147.186 20.2216 146.952 23.6694C146.679 27.6207 144.027 30.255 140.049 30.5261C131.664 31.146 128.661 20.0279 136.227 16.309C138.177 15.3406 140.283 15.2631 142.272 16.0766Z" fill="white"/>
<path id="Vector_7" d="M76.401 25.9162C77.376 30.836 78.273 34.7099 78.429 34.555C78.663 34.2838 81.9 18.4784 81.9 17.5486C81.9 17.2387 81.432 17.2387 80.184 17.6261C78.585 18.1297 77.025 18.0135 75.231 17.2775C74.724 17.045 74.919 18.4784 76.401 25.9162Z" fill="white"/>
</g>
</g>
</svg>
